<svg xmlns="http://www.w3.org/2000/svg" viewBox="0 0 64 64" aria-labelledby="title"
aria-describedby="desc" role="img" xmlns:xlink="http://www.w3.org/1999/xlink">
  <title>Property</title>
  <desc>A line styled icon from Orion Icon Library.</desc>
  <path data-name="layer2"
  fill="none" stroke="#202020" stroke-linecap="round" stroke-miterlimit="10"
  stroke-width="2" d="M54 22.6V8h-9v7.445M40 62h14V29.769M10 30v32h14" stroke-linejoin="round"></path>
  <circle data-name="layer2" cx="32" cy="29" r="5" fill="none" stroke="#202020"
  stroke-linecap="round" stroke-miterlimit="10" stroke-width="2" stroke-linejoin="round"></circle>
  <path data-name="layer1" fill="none" stroke="#202020" stroke-linecap="round"
  stroke-miterlimit="10" stroke-width="2" d="M24 42h16v20H24zm8-37L2.436 28.651a.5.5 0 0 0-.036.749l3.287 3.287a.5.5 0 0 0 .668.035L32 12l25.65 20.718a.5.5 0 0 0 .668-.035l3.287-3.283a.5.5 0 0 0-.041-.744z"
  stroke-linejoin="round"></path>
</svg>