<svg version="1" xmlns="http://www.w3.org/2000/svg" width="1405.333" height="1405.333" viewBox="0 0 1054.000000 1054.000000"><path d="M157 214.6c-10.9 2.8-19.9 8.2-28.6 16.8-9.4 9.4-14.8 19.1-17.4 31.4-1.5 6.9-1.9 7.7-4.1 8-7.2.7-14.3 2.8-21.9 6.4-6.7 3.2-10.1 5.7-16.1 11.7-12.8 12.9-17.6 24.3-19.7 47.1-1.1 10.8-7 61.9-9.2 79.5-.6 4.4-8.9 74.8-18.5 156.5S3.2 726.9 2 734.8c-2.6 18.6-2.6 33.4 0 43.8 7.5 29.1 31.3 52 62.4 59.9l9.9 2.5h397.6c440.6 0 402.4.6 416.8-6.6 17.1-8.6 29.9-25.7 33.4-44.8l1.2-6.6h18.6c10.2 0 20.6-.5 23.1-1.1 13.6-3.1 27-13.9 33.4-26.9 4-8.3 4.9-12.5 7.1-34.5.8-8.3 3.5-33.7 5.9-56.5 2.5-22.8 6.8-62.3 9.6-87.8 2.7-25.4 7.3-67 10-92.5 4.9-44.7 9-82.9 18.5-170.1 2.5-22.8 4.5-44 4.5-47.2-.1-22.7-18.5-44.2-41.4-48.3-9.5-1.7-105.4-1.4-113.7.3-21 4.5-36.9 21.7-40.1 43.4l-1.2 8.2h-54.3l-3.7-7.3c-7.9-15.6-21.6-28.8-38.1-36.7-19.1-9.2-4.1-8.4-166.5-8.8-102.6-.2-145.7 0-151.4.8-26.7 3.8-51.6 21.7-63.4 45.5l-3.3 6.5-27.1-.2-27.1-.3-1.3-6.4c-4.6-22.4-24.5-42.5-48-48.5-8.8-2.3-107.9-2.3-116.4 0zm530.7 201.6c-.6 2.3-8.7 49.3-8.7 50.3 0 .3 5.9.5 13.1.5 13.1 0 13.1 0 12.6 2.2-.3 1.3-2.2 11.5-4.2 22.8-2.1 11.3-3.8 20.6-3.9 20.7-.1.1-6 1-13.1 2l-12.9 1.8-.8 3.5c-.4 1.9-2.1 11.6-3.7 21.5-1.7 9.9-3.6 20.5-4.1 23.5-5 26.9-6.2 35.7-7.1 50-.6 9.1-1.2 16.6-1.4 16.8-.4.4-63.8 4.2-64.2 3.9-.2-.3 18-111.1 19.3-117l.6-2.7h-12.1c-11.5 0-12.1-.1-12.1-2.1 0-2.3 6-36 6.5-36.9.2-.4 6.2-3.5 13.3-6.9l12.9-6.3 1.2-13.7c.6-7.5 1.4-16.2 1.7-19.3l.6-5.7 6.6-1.1c36.2-6.3 57-9.8 58.6-9.9 1.4-.1 1.7.4 1.3 2.1zm133.8 48.3c11.1 3 21.6 8.9 29.9 16.6 12.7 11.9 19.3 25.7 21.6 45.4 2.8 23.6-5.4 51.6-21.2 72.6-27.3 36.3-75.3 49.9-112.2 32C716.1 619.7 702 596 702 568c0-50.7 33.7-94.8 80-104.6 8.5-1.8 31.2-1.1 39.5 1.1z"/><path d="M790.4 511.9c-13.2 3.2-21.7 18.6-25.4 45.8-2 14.5.8 25.2 7.5 29.3 17.4 10.5 35.9-11.8 38.1-46 .8-12.1-.7-19.9-4.7-24.5-1.7-1.9-3.8-3.6-4.7-3.9-4.1-1.1-7.9-1.4-10.8-.7z"/></svg>