<svg xmlns="http://www.w3.org/2000/svg" viewBox="0 0 64 64" aria-labelledby="title"
aria-describedby="desc" role="img" xmlns:xlink="http://www.w3.org/1999/xlink">
  <title>Feather</title>
  <desc>A color styled icon from Orion Icon Library.</desc>
  <path data-name="layer1"
  d="M48.9 5l-6.8 16.9V8.2c-10.8 6-23.6 17.8-31.5 41.1l2.1 2.1 2.1 2.1C61.6 37.5 62 2 62 2a42 42 0 0 0-13.1 3z"
  fill="#7b8baf"></path>
  <path data-name="opacity" d="M62 2L42.1 21.9 12.7 51.3l2.1 2.1C61.6 37.5 62 2 62 2z"
  fill="#000028" opacity=".24"></path>
  <path data-name="stroke" fill="none" stroke="#2e4369" stroke-linecap="round"
  stroke-linejoin="round" stroke-width="2" d="M51.5 12.5L2 62M48.9 5l-6.8 16.9V8.2c-10.8 6-23.6 17.8-31.5 41.1l2.1 2.1 2.1 2.1C61.6 37.5 62 2 62 2a42 42 0 0 0-13.1 3zm-27 37.1V26.5m10.5 5.1h16.7m-21.7 5h16.8"></path>
</svg>