<svg xmlns="http://www.w3.org/2000/svg" viewBox="0 0 64 64" aria-labelledby="title"
aria-describedby="desc" role="img" xmlns:xlink="http://www.w3.org/1999/xlink">
  <title>Podcast</title>
  <desc>A color styled icon from Orion Icon Library.</desc>
  <path data-name="layer2"
  d="M55 42a8 8 0 0 1-8 8 8 8 0 0 1-8-8V30a8 8 0 0 1 8-8 8 8 0 0 1 8 8z"
  fill="#536897"></path>
  <path data-name="opacity" d="M50 49a8 8 0 0 1-8-8V29a8 8 0 0 1 4-6.9 8 8 0 0 0-7 7.9v12a8 8 0 0 0 12 6.9z"
  fill="#000064" opacity=".15"></path>
  <path data-name="layer1" d="M39 42V30a8 8 0 0 1 5-7.4 15.9 15.9 0 0 0 1-5.6c0-8.3-6.3-15-14-15S17 8.7 17 17a15.3 15.3 0 0 0 6.1 12.4A24.1 24.1 0 0 0 7 52h40v-2a8 8 0 0 1-8-8z"
  fill="#8fa9d8"></path>
  <path data-name="opacity" d="M39 42V30a7.9 7.9 0 0 1 1.4-4.6A8 8 0 0 0 35 33v12a8 8 0 0 0 4.1 7H47v-2a8 8 0 0 1-8-8zm-18-8c3 1 8 0 11-3-9.4 0-16.2-11.5-14.3-18.7A15.9 15.9 0 0 0 17 17a15.3 15.3 0 0 0 6.1 12.4A24.1 24.1 0 0 0 7 52h5.5c0-10 5.5-16 8.5-18z"
  fill="#000064" opacity=".15"></path>
  <path data-name="stroke" d="M44 22.6a15.9 15.9 0 0 0 1-5.6c0-8.3-6.3-15-14-15S17 8.7 17 17a15.3 15.3 0 0 0 6.1 12.4A24.1 24.1 0 0 0 7 52h40m0-2v12m8 0H39"
  fill="none" stroke="#000000" stroke-linecap="round" stroke-miterlimit="10"
  stroke-width="2" stroke-linejoin="round"></path>
  <path data-name="stroke" d="M55 42a8 8 0 0 1-8 8 8 8 0 0 1-8-8V30a8 8 0 0 1 8-8 8 8 0 0 1 8 8z"
  fill="none" stroke="#000000" stroke-linecap="round" stroke-miterlimit="10"
  stroke-width="2" stroke-linejoin="round"></path>
</svg>