<svg xmlns="http://www.w3.org/2000/svg" viewBox="0 0 64 64" aria-labelledby="title"
aria-describedby="desc" role="img" xmlns:xlink="http://www.w3.org/1999/xlink">
  <title>User Group</title>
  <desc>A color styled icon from Orion Icon Library.</desc>
  <path data-name="layer2"
  d="M38.1 51.2c-8-1.1-8-4-8-5.6v-.9a14.6 14.6 0 0 0 4.2-7c2.4 0 3-5.1 3-5.8s-.2-3.6-1.3-3.9c4-14-8-20-18.4-12.8-4.4 0-5.8 6.4-4.2 12.8-1.1 0-1.3 3-1.3 3.8s.6 5.8 3 5.8c.8 2.9 3 5.3 4.9 7v1c0 1.6-.6 4.6-8.7 5.6S2 60 2 60h44s.1-7.7-7.9-8.8z"
  fill="#a5d0ec"></path>
  <path data-name="opacity" d="M15.3 51.2c8.1-1 8.7-4 8.7-5.6v-1a15 15 0 0 1-4.9-7c-2.4 0-3-5.1-3-5.8s.2-3.8 1.3-3.8c-1.6-6.4-.2-12.8 4.2-12.8a17 17 0 0 1 7-2.9 15.1 15.1 0 0 0-11 2.9c-4.4 0-5.8 6.4-4.2 12.8-1.1 0-1.3 3-1.3 3.8s.6 5.8 3 5.8a15 15 0 0 0 4.9 7v1c0 1.6-.6 4.6-8.7 5.6S2 60 2 60h4s0-7.6 9.3-8.8z"
  fill="#000064" opacity=".15"></path>
  <path data-name="layer1" d="M35.8 28c1.1.3 1.4 3 1.4 3.8s-.5 5.8-3 5.8h-.1a14 14 0 0 1-4.2 7v.9c0 1.6 0 4.5 8 5.6a10.5 10.5 0 0 1 2.9.8H62s0-6.3-8.3-8-7.7-4.7-7.7-6.3V36a56.6 56.6 0 0 0 12.8-1.6c-3.3-3.3-6.4-4.7-6.4-18.5C52.4-.3 36.2 4.7 36.2 4.7c-5.9 0-8.2 4.2-9.2 7.4 7 .5 11.6 6.3 8.8 15.9z"
  fill="#ff9781"></path>
  <path data-name="opacity" d="M35.8 28c1.1.3 1.4 3 1.4 3.8s-.5 5.8-3 5.8h-.1a14 14 0 0 1-4.2 7v.9c0 1.6 0 4.5 8 5.6a10.5 10.5 0 0 1 2.9.8H62s0-6.3-8.3-8-7.7-4.7-7.7-6.3V36a56.6 56.6 0 0 0 12.8-1.6c-3.3-3.3-6.4-4.7-6.4-18.5C52.4-.3 36.2 4.7 36.2 4.7c-5.9 0-8.2 4.2-9.2 7.4 7 .5 11.6 6.3 8.8 15.9z"
  fill="#000064" opacity=".15"></path>
  <path data-name="stroke" d="M27.4 12.2c.9-3.3 3.2-7.4 9-7.4 0 0 16-5.1 16 11.2 0 13.7 3.1 15.2 6.4 18.5A56.6 56.6 0 0 1 46 36v1.6c0 1.6-.3 4.8 7.7 6.4s8.3 8 8.3 8H41"
  fill="none" stroke="#000000" stroke-linecap="round" stroke-linejoin="round"
  stroke-width="2"></path>
  <path data-name="stroke" d="M38.1 51.2c-8-1.1-8-4-8-5.6v-.9a14.6 14.6 0 0 0 4.2-7c2.4 0 3-5.1 3-5.8s-.2-3.6-1.3-3.9c4-14-8-20-18.4-12.8-4.4 0-5.8 6.4-4.2 12.8-1.1 0-1.3 3-1.3 3.8s.6 5.8 3 5.8c.8 2.9 3 5.3 4.9 7v1c0 1.6-.6 4.6-8.7 5.6S2 60 2 60h44s.1-7.7-7.9-8.8z"
  fill="none" stroke="#000000" stroke-linecap="round" stroke-linejoin="round"
  stroke-width="2"></path>
</svg>