<svg xmlns="http://www.w3.org/2000/svg" viewBox="0 0 64 64" aria-labelledby="title"
aria-describedby="desc" role="img" xmlns:xlink="http://www.w3.org/1999/xlink">
  <title>Hearts</title>
  <desc>A solid styled icon from Orion Icon Library.</desc>
  <path data-name="layer2"
  d="M53 27a9.7 9.7 0 0 0-9 5.9 9.7 9.7 0 0 0-9-5.9 8.9 8.9 0 0 0-9 8.7 8.8 8.8 0 0 0 .4 2.7c2 7.7 11.2 15.4 17.6 20.6 6.3-5.2 15.5-13.5 17.5-20.4a8.5 8.5 0 0 0 .3-1.2v-.2A8.9 8.9 0 0 0 62 36a8.9 8.9 0 0 0-9-9z"
  fill="#202020"></path>
  <path data-name="layer1" d="M22 35.9a4.1 4.1 0 0 1 0-.5A12.9 12.9 0 0 1 35 23a14.1 14.1 0 0 1 9 3.3 14.1 14.1 0 0 1 4.3-2.5 20.9 20.9 0 0 0 1.1-2.8 12.3 12.3 0 0 0 .4-1.7v-.2a12.6 12.6 0 0 0 .1-1.7A12.1 12.1 0 0 0 38 5a13 13 0 0 0-12 8.2A13 13 0 0 0 14 5 12.1 12.1 0 0 0 2 16.9v.2a12.5 12.5 0 0 0 .6 3.7C5.3 31.2 17.5 41.8 26 49l1-.9a25.3 25.3 0 0 1-4.4-8.4 12.8 12.8 0 0 1-.6-3.8z"
  fill="#202020"></path>
</svg>