<svg viewBox="0 0 64 64" xmlns="http://www.w3.org/2000/svg" aria-labelledby="title"
aria-describedby="desc" role="img" xmlns:xlink="http://www.w3.org/1999/xlink">
  <title>Microphone</title>
  <desc>A solid styled icon from Orion Icon Library.</desc>
  <path fill="#202020"
  d="M32 44a12.014 12.014 0 0 0 12-12V13a12 12 0 1 0-24 0v19a12.014 12.014 0 0 0 12 12z"
  data-name="layer2"></path>
  <path fill="#202020" d="M50 21a2 2 0 0 0-2 2v9a16 16 0 1 1-32 0v-9a2 2 0 1 0-4 0v9a20.027 20.027 0 0 0 18 19.9V60h-8a2 2 0 0 0 0 4h20a2 2 0 0 0 0-4h-8v-8.1A20.026 20.026 0 0 0 52 32v-9a2 2 0 0 0-2-2z"
  data-name="layer1"></path>
</svg>