<svg viewBox="0 0 64 64" xmlns="http://www.w3.org/2000/svg" aria-labelledby="title"
aria-describedby="desc" role="img" xmlns:xlink="http://www.w3.org/1999/xlink">
  <title>Pen</title>
  <desc>A solid styled icon from Orion Icon Library.</desc>
  <path fill="#202020"
  d="M18.679 56.916l-.339-.971a3.981 3.981 0 0 1 .607-3.761l.632-.817-.047-.154a8.134 8.134 0 0 0 1.1.084 8.222 8.222 0 0 0 6.128-2.762l36-40.445a4.878 4.878 0 0 0 .051-6.49A4.821 4.821 0 0 0 59.2-.013a4.934 4.934 0 0 0-3.285 1.257l-40.453 36a9.18 9.18 0 0 0-.669.668 8.141 8.141 0 0 0-2.073 5.927c.013.213.039.423.068.632l-.153-.047-.818.634a4.027 4.027 0 0 1-3.759.606l-.976-.342S-.02 50-.02 64.013a28.389 28.389 0 0 0 18.699-7.097zM8.334 58.5l2.913-2.913a2 2 0 0 0-2.829-2.827l-2.881 2.882A14.6 14.6 0 0 1 7.9 49.751a8.087 8.087 0 0 0 5.369-.867 6.98 6.98 0 0 1 1.857 1.855 7.958 7.958 0 0 0-.867 5.372A25.4 25.4 0 0 1 8.334 58.5z"
  data-name="layer1"></path>
</svg>