<svg xmlns="http://www.w3.org/2000/svg" viewBox="0 0 64 64" aria-labelledby="title"
aria-describedby="desc" role="img" xmlns:xlink="http://www.w3.org/1999/xlink">
  <title>Podcast</title>
  <desc>A solid styled icon from Orion Icon Library.</desc>
  <path data-name="layer2"
  d="M56 42V30a8 8 0 1 0-16 0v12a8 8 0 0 0 6 7.7V58h-4a2 2 0 0 0 0 4h12a2 2 0 0 0 0-4h-4v-8.3a8 8 0 0 0 6-7.7z"
  fill="#202020"></path>
  <path data-name="layer1" d="M36 42V30a12 12 0 0 1 9.9-11.8c0-.4.1-.8.1-1.2 0-8.3-6.3-15-14-15S18 8.7 18 17a15.3 15.3 0 0 0 6.1 12.4A24.1 24.1 0 0 0 8 52h33.4A12 12 0 0 1 36 42z"
  fill="#202020"></path>
</svg>