<svg xmlns="http://www.w3.org/2000/svg" viewBox="0 0 64 64" aria-labelledby="title"
aria-describedby="desc" role="img" xmlns:xlink="http://www.w3.org/1999/xlink">
  <title>Brush</title>
  <desc>A color styled icon from Orion Icon Library.</desc>
  <path data-name="layer3"
  d="M61.5 3.2a1.8 1.8 0 0 0-2.3-.2h-.1C37.9 18.8 27.9 28.1 20.6 35.4l8.6 8.7c7.3-7.3 16.6-17.3 32.4-38.5h.1a1.8 1.8 0 0 0-.2-2.4z"
  fill="#ed4c49"></path>
  <path data-name="layer2" d="M18 38a6.1 6.1 0 0 0 8.7 8.7l2.6-2.6-8.6-8.7z"
  fill="#bacae9"></path>
  <path data-name="opacity" d="M61.4 3.2a1.8 1.8 0 0 0-.9-.5C44.8 23.8 35.4 33.7 28.2 41l-1 1 2 2c7.3-7.3 16.6-17.3 32.4-38.5h.1a1.8 1.8 0 0 0-.3-2.3zM25.6 43.7a6.1 6.1 0 0 1-8.7 0l-.8-.9a6.1 6.1 0 0 0 10.4 3.9l2.6-2.6-2-2z"
  fill="#000028" opacity=".15"></path>
  <path data-name="layer1" d="M18.3 55.5A6 6 0 0 0 9.8 47C5.5 51.2 7 59.9 2 61.4c4.7-.3 11.5-1.1 16.3-5.9z"
  fill="#536897"></path>
  <path data-name="stroke" d="M61.5 3.2a1.8 1.8 0 0 0-2.3-.2h-.1C37.9 18.8 27.9 28.1 20.6 35.4l8.6 8.7c7.3-7.3 16.6-17.3 32.4-38.5h.1a1.8 1.8 0 0 0-.2-2.4z"
  fill="none" stroke="#2e4369" stroke-linecap="round" stroke-linejoin="round"
  stroke-width="2"></path>
  <path data-name="stroke" d="M18 38a6.1 6.1 0 0 0 8.7 8.7l2.6-2.6-8.6-8.7z"
  fill="none" stroke="#2e4369" stroke-linecap="round" stroke-linejoin="round"
  stroke-width="2"></path>
  <path data-name="stroke" d="M18.3 55.5A6 6 0 0 0 9.8 47C5.5 51.2 7 59.9 2 61.4c4.7-.3 11.5-1.1 16.3-5.9z"
  fill="none" stroke="#2e4369" stroke-linecap="round" stroke-linejoin="round"
  stroke-width="2"></path>
</svg>