<svg xmlns="http://www.w3.org/2000/svg" viewBox="0 0 64 64" aria-labelledby="title"
aria-describedby="desc" role="img" xmlns:xlink="http://www.w3.org/1999/xlink">
  <title>Cancel</title>
  <desc>A color styled icon from Orion Icon Library.</desc>
  <path data-name="layer1"
  d="M53.122 48.88L36.243 32l16.878-16.878a3 3 0 0 0-4.242-4.242L32 27.758l-16.878-16.88a3 3 0 0 0-4.243 4.243l16.878 16.88-16.88 16.879a3 3 0 1 0 4.243 4.242L32 36.243l16.878 16.88a3 3 0 0 0 4.244-4.243z"
  fill="#bacae9"></path>
  <path data-name="stroke" d="M53.122 48.88L36.243 32l16.878-16.878a3 3 0 0 0-4.242-4.242L32 27.758l-16.878-16.88a3 3 0 0 0-4.243 4.243l16.878 16.88-16.88 16.879a3 3 0 1 0 4.243 4.242L32 36.243l16.878 16.88a3 3 0 0 0 4.244-4.243z"
  fill="none" stroke="#2e4369" stroke-linecap="round" stroke-linejoin="round"
  stroke-width="2"></path>
</svg>