<svg xmlns="http://www.w3.org/2000/svg" viewBox="0 0 64 64" aria-labelledby="title"
aria-describedby="desc" role="img" xmlns:xlink="http://www.w3.org/1999/xlink">
  <title>Recording</title>
  <desc>A color styled icon from Orion Icon Library.</desc>
  <path data-name="layer2"
  d="M42 12a10 10 0 0 0-20 0v14h20z" fill="#536897"></path>
  <path data-name="layer1" d="M22 26v6a10 10 0 0 0 20 0v-6z" fill="#8fa9d8"></path>
  <path data-name="opacity" d="M36 40a10 10 0 0 1-10-10V10a10 10 0 0 1 3.6-7.7A10 10 0 0 0 22 12v20a10 10 0 0 0 16.4 7.7 10 10 0 0 1-2.4.3z"
  fill="#000064" opacity=".2"></path>
  <path data-name="stroke" d="M42 32a10 10 0 0 1-10 10 10 10 0 0 1-10-10V12A10 10 0 0 1 32 2a10 10 0 0 1 10 10z"
  fill="none" stroke="#2e4369" stroke-linecap="round" stroke-miterlimit="10"
  stroke-width="2" stroke-linejoin="round"></path>
  <path data-name="stroke" d="M50 22v10a18 18 0 0 1-18 18 18 18 0 0 1-18-18V22m18 28v12m-10 0h20M14 26h36"
  fill="none" stroke="#2e4369" stroke-linecap="round" stroke-miterlimit="10"
  stroke-width="2" stroke-linejoin="round"></path>
</svg>