<svg xmlns="http://www.w3.org/2000/svg" viewBox="0 0 64 64" aria-labelledby="title"
aria-describedby="desc" role="img" xmlns:xlink="http://www.w3.org/1999/xlink">
  <title>Shutdown</title>
  <desc>A color styled icon from Orion Icon Library.</desc>
  <path data-name="layer1"
  d="M45.513 6.62a3 3 0 0 0-3.006 5.192 21 21 0 1 1-21.006-.004 3 3 0 0 0-3.006-5.192 27 27 0 1 0 27.018.004z"
  fill="#bacae9"></path>
  <path data-name="layer1" d="M32 31a3 3 0 0 0 3-3V4a3 3 0 0 0-6 0v24a3 3 0 0 0 3 3z"
  fill="#bacae9"></path>
  <path data-name="stroke" d="M45.513 6.62a3 3 0 0 0-3.006 5.192 21 21 0 1 1-21.006-.004 3 3 0 0 0-3.006-5.192 27 27 0 1 0 27.018.004z"
  fill="none" stroke="#2e4369" stroke-linecap="round" stroke-linejoin="round"
  stroke-width="2"></path>
  <path data-name="stroke" d="M32 31a3 3 0 0 0 3-3V4a3 3 0 0 0-6 0v24a3 3 0 0 0 3 3z"
  fill="none" stroke="#2e4369" stroke-linecap="round" stroke-linejoin="round"
  stroke-width="2"></path>
</svg>