<?xml version="1.0" encoding="UTF-8"?>
<svg xmlns="http://www.w3.org/2000/svg" id="Layer_1" data-name="Layer 1" viewBox="0 0 527.16 314.29">
   <defs>
      <style>
        .cls-1 {fill:#1b1464;}
        .cls-2 {fill:#29abe2;}
        .cls-3 {fill:#fb4510;}
        .cls-4 {fill:#fcee7f;}
        </style>
   </defs>
   <title>ttologo2-color</title>
   <path class="cls-1" d="M446.11,324.77H60.18c-26.87,0-46.9-21.12-43.75-46.16.39-3.07,1.77-12,2.12-15.07L41.21,71A31.54,31.54,0,0,1,72.75,39.46H471.26A31.54,31.54,0,0,1,502.8,71L477.65,293.23A31.55,31.55,0,0,1,446.11,324.77Z" transform="translate(-16.11 -10.48)" />
   <path class="cls-2" d="M492.67,295.78H445.82a25.44,25.44,0,0,1-25.45-25.45L445.52,38.18A25.45,25.45,0,0,1,471,12.72h46.85a25.45,25.45,0,0,1,25.45,25.46L518.12,270.33A25.45,25.45,0,0,1,492.67,295.78Z" transform="translate(-16.11 -10.48)" />
   <path class="cls-3" d="M114.91,295.78H77.46a31.54,31.54,0,0,1-31.54-31.54L71.07,42a31.54,31.54,0,0,1,31.54-31.54h42.21c17.42,0,32.59,14.19,32.59,31.61L147.55,263.54C145.41,281.63,132.33,295.78,114.91,295.78Z" transform="translate(-16.11 -10.48)" />
   <path class="cls-3" d="M353.23,295.78H218.94a42.33,42.33,0,0,1-42.32-41.37c0-.63.25-3,.33-3.64L201.76,55.06a42.34,42.34,0,0,1,42.33-42.34H378.38a42.34,42.34,0,0,1,42.34,42.34L395.57,253.45A42.34,42.34,0,0,1,353.23,295.78Z" transform="translate(-16.11 -10.48)" />
   <path class="cls-1" d="M437.76,242.85H312.15c-16.76,0-30.35-14.62-30.35-32.65l9.08-78.35c0-18,13.59-32.66,30.35-32.66H446.84c16.76,0,30.35,14.62,30.35,32.66l-9.08,78.35C468.11,228.23,454.52,242.85,437.76,242.85Z" transform="translate(-16.11 -10.48)" />
   <path class="cls-4" d="M360.7,110.53l-4.56,26.56h13.15l-4.38,23.84-13.15,1.81-7.54,43.71-.7,14.27-33.31,1.8,10-60.14H307.93l3.51-20.24,13.32-6.5,1.58-19.33Z" transform="translate(-16.11 -10.48)" />
   <path class="cls-4" d="M403.65,224.15c-20.69,0-36.82-13.73-36.82-35.94,0-31.44,23.84-53.65,48.74-53.65,22.79,0,37.87,15.17,37.87,37C453.44,201.21,429.59,224.15,403.65,224.15Zm9.82-63.94c-6.32,0-11.75,6.68-13.85,19.33-2.46,13.72,1.05,19,7.53,19,5.44,0,11.22-6.14,13.5-19C422.76,166.35,420,160.21,413.47,160.21Z" transform="translate(-16.11 -10.48)" />
</svg>